<svg width="63" height="24" viewBox="0 0 63 24" fill="none" xmlns="http://www.w3.org/2000/svg">
<path d="M6.66406 13.2109H8.9375C8.90625 14.0651 8.73438 14.7865 8.42188 15.375C8.10938 15.9583 7.66406 16.401 7.08594 16.7031C6.51302 17.0052 5.82031 17.1562 5.00781 17.1562C4.3776 17.1562 3.81771 17.0521 3.32812 16.8438C2.83854 16.6302 2.42188 16.3177 2.07812 15.9062C1.73438 15.4948 1.47396 14.987 1.29688 14.3828C1.125 13.7734 1.03906 13.0729 1.03906 12.2812V10.3516C1.03906 9.5599 1.13021 8.85938 1.3125 8.25C1.5 7.64062 1.76562 7.13021 2.10938 6.71875C2.45833 6.30208 2.8776 5.98958 3.36719 5.78125C3.86198 5.56771 4.41927 5.46094 5.03906 5.46094C5.86719 5.46094 6.5599 5.61719 7.11719 5.92969C7.67448 6.24219 8.10417 6.69792 8.40625 7.29688C8.71354 7.89062 8.89844 8.61719 8.96094 9.47656H6.67969C6.66406 8.9349 6.60156 8.51042 6.49219 8.20312C6.38802 7.89062 6.22135 7.67188 5.99219 7.54688C5.76302 7.41667 5.44531 7.35156 5.03906 7.35156C4.73698 7.35156 4.47656 7.40625 4.25781 7.51562C4.03906 7.61979 3.85938 7.78906 3.71875 8.02344C3.57812 8.25781 3.47396 8.5651 3.40625 8.94531C3.34375 9.32552 3.3125 9.78906 3.3125 10.3359V12.2812C3.3125 12.8177 3.34115 13.276 3.39844 13.6562C3.45573 14.0312 3.54688 14.3385 3.67188 14.5781C3.79688 14.8177 3.96615 14.9922 4.17969 15.1016C4.39844 15.2109 4.67448 15.2656 5.00781 15.2656C5.39323 15.2656 5.70312 15.2083 5.9375 15.0938C6.17708 14.9792 6.35417 14.7734 6.46875 14.4766C6.58333 14.1797 6.64844 13.7578 6.66406 13.2109ZM13.9844 15.0547V11.1484C13.9844 10.8932 13.9531 10.6901 13.8906 10.5391C13.8333 10.388 13.7448 10.2786 13.625 10.2109C13.5104 10.138 13.3698 10.1016 13.2031 10.1016C13.0156 10.1016 12.8594 10.1406 12.7344 10.2188C12.6094 10.2969 12.5156 10.4089 12.4531 10.5547C12.3958 10.7005 12.3672 10.875 12.3672 11.0781H10.1719C10.1719 10.7135 10.2422 10.3698 10.3828 10.0469C10.5234 9.71875 10.7292 9.43229 11 9.1875C11.276 8.9375 11.6042 8.74219 11.9844 8.60156C12.3646 8.46094 12.7917 8.39062 13.2656 8.39062C13.8281 8.39062 14.3281 8.48698 14.7656 8.67969C15.2031 8.86719 15.5495 9.16667 15.8047 9.57812C16.0599 9.98958 16.1875 10.5234 16.1875 11.1797V14.9453C16.1875 15.4193 16.2109 15.8047 16.2578 16.1016C16.3099 16.3984 16.3854 16.6536 16.4844 16.8672V17H14.2812C14.1823 16.7656 14.1068 16.474 14.0547 16.125C14.0078 15.7708 13.9844 15.4141 13.9844 15.0547ZM14.25 11.8359L14.2578 13.1484H13.4531C13.2448 13.1484 13.0625 13.1823 12.9062 13.25C12.7552 13.3177 12.6276 13.4141 12.5234 13.5391C12.4193 13.6589 12.3411 13.7995 12.2891 13.9609C12.2422 14.1224 12.2188 14.2943 12.2188 14.4766C12.2188 14.6797 12.2474 14.8516 12.3047 14.9922C12.362 15.1328 12.4479 15.2396 12.5625 15.3125C12.6771 15.3854 12.8125 15.4219 12.9688 15.4219C13.2083 15.4219 13.4167 15.3724 13.5938 15.2734C13.7708 15.1745 13.901 15.0547 13.9844 14.9141C14.0729 14.7734 14.1016 14.6432 14.0703 14.5234L14.5703 15.375C14.5078 15.5677 14.4219 15.7682 14.3125 15.9766C14.2083 16.1849 14.0755 16.3776 13.9141 16.5547C13.7526 16.7318 13.5521 16.8776 13.3125 16.9922C13.0781 17.1016 12.7995 17.1562 12.4766 17.1562C12.0234 17.1562 11.6094 17.0521 11.2344 16.8438C10.8594 16.6354 10.5625 16.3438 10.3438 15.9688C10.1302 15.5938 10.0234 15.1484 10.0234 14.6328C10.0234 14.2057 10.0911 13.8203 10.2266 13.4766C10.3672 13.1276 10.5755 12.8333 10.8516 12.5938C11.1276 12.349 11.4766 12.1615 11.8984 12.0312C12.3203 11.901 12.8151 11.8359 13.3828 11.8359H14.25ZM19.9922 10.4297V17H17.8047V8.54688H19.8672L19.9922 10.4297ZM21.9844 8.48438L21.9531 10.6641C21.8542 10.6432 21.7344 10.6276 21.5938 10.6172C21.4583 10.6068 21.3385 10.6016 21.2344 10.6016C20.9896 10.6016 20.7812 10.6406 20.6094 10.7188C20.4375 10.7917 20.2943 10.9036 20.1797 11.0547C20.0703 11.2005 19.987 11.3828 19.9297 11.6016C19.8724 11.8203 19.8385 12.0677 19.8281 12.3438L19.4141 12.1875C19.4141 11.6354 19.4557 11.1302 19.5391 10.6719C19.6276 10.2083 19.7578 9.80729 19.9297 9.46875C20.1016 9.125 20.3073 8.85938 20.5469 8.67188C20.7917 8.48438 21.0677 8.39062 21.375 8.39062C21.4792 8.39062 21.5885 8.40104 21.7031 8.42188C21.8229 8.4375 21.9167 8.45833 21.9844 8.48438ZM26.8516 14.7188C26.8516 14.5729 26.8021 14.4427 26.7031 14.3281C26.6042 14.2135 26.4479 14.0964 26.2344 13.9766C26.0208 13.8516 25.737 13.7135 25.3828 13.5625C24.9974 13.4062 24.6562 13.2448 24.3594 13.0781C24.0625 12.9115 23.8099 12.7266 23.6016 12.5234C23.3984 12.3203 23.2448 12.0885 23.1406 11.8281C23.0365 11.5677 22.9844 11.2708 22.9844 10.9375C22.9844 10.5781 23.0495 10.2474 23.1797 9.94531C23.3151 9.63802 23.5078 9.36979 23.7578 9.14062C24.0078 8.90625 24.3125 8.72396 24.6719 8.59375C25.0365 8.45833 25.4453 8.39062 25.8984 8.39062C26.5339 8.39062 27.0781 8.5026 27.5312 8.72656C27.9896 8.94531 28.3411 9.2526 28.5859 9.64844C28.8307 10.0443 28.9531 10.5052 28.9531 11.0312H26.7656C26.7656 10.8438 26.737 10.6771 26.6797 10.5312C26.6224 10.3802 26.5286 10.263 26.3984 10.1797C26.2734 10.0964 26.1042 10.0547 25.8906 10.0547C25.7344 10.0547 25.5938 10.0885 25.4688 10.1562C25.349 10.224 25.2526 10.3151 25.1797 10.4297C25.112 10.5391 25.0781 10.6693 25.0781 10.8203C25.0781 10.9349 25.1016 11.0365 25.1484 11.125C25.2005 11.2135 25.2812 11.2995 25.3906 11.3828C25.5 11.4661 25.6458 11.5547 25.8281 11.6484C26.0156 11.737 26.2448 11.8359 26.5156 11.9453C27.0781 12.1536 27.5391 12.3776 27.8984 12.6172C28.263 12.8568 28.5339 13.138 28.7109 13.4609C28.888 13.7786 28.9766 14.1719 28.9766 14.6406C28.9766 15.0156 28.9036 15.3568 28.7578 15.6641C28.6172 15.9714 28.4115 16.237 28.1406 16.4609C27.8698 16.6849 27.5443 16.8568 27.1641 16.9766C26.7891 17.0964 26.3698 17.1562 25.9062 17.1562C25.224 17.1562 24.6484 17.0208 24.1797 16.75C23.7109 16.4792 23.3568 16.1328 23.1172 15.7109C22.8776 15.2839 22.7578 14.8411 22.7578 14.3828H24.8359C24.8464 14.6641 24.8984 14.8854 24.9922 15.0469C25.0911 15.2031 25.224 15.3125 25.3906 15.375C25.5573 15.4375 25.7422 15.4688 25.9453 15.4688C26.1484 15.4688 26.3151 15.4427 26.4453 15.3906C26.5807 15.3333 26.6823 15.2474 26.75 15.1328C26.8177 15.013 26.8516 14.875 26.8516 14.7188ZM38.9766 14.0078C38.9766 13.8047 38.9583 13.6198 38.9219 13.4531C38.8854 13.2865 38.8073 13.1328 38.6875 12.9922C38.5729 12.8516 38.4036 12.7109 38.1797 12.5703C37.9609 12.4297 37.6745 12.2839 37.3203 12.1328C36.8984 11.9557 36.4896 11.7682 36.0938 11.5703C35.6979 11.3672 35.3411 11.1328 35.0234 10.8672C34.7057 10.6016 34.4531 10.2891 34.2656 9.92969C34.0833 9.5651 33.9922 9.13802 33.9922 8.64844C33.9922 8.16927 34.0781 7.73438 34.25 7.34375C34.4271 6.95312 34.6771 6.61979 35 6.34375C35.3229 6.0625 35.7005 5.84635 36.1328 5.69531C36.5703 5.54427 37.0573 5.46875 37.5938 5.46875C38.3229 5.46875 38.9531 5.61979 39.4844 5.92188C40.0208 6.22396 40.4349 6.63802 40.7266 7.16406C41.0234 7.6901 41.1719 8.29427 41.1719 8.97656H38.8906C38.8906 8.65365 38.8438 8.36979 38.75 8.125C38.6615 7.875 38.5182 7.67969 38.3203 7.53906C38.1224 7.39844 37.8672 7.32812 37.5547 7.32812C37.263 7.32812 37.0208 7.38802 36.8281 7.50781C36.6406 7.6224 36.5 7.78125 36.4062 7.98438C36.3177 8.18229 36.2734 8.40625 36.2734 8.65625C36.2734 8.84375 36.3177 9.01302 36.4062 9.16406C36.5 9.3099 36.6276 9.44271 36.7891 9.5625C36.9505 9.67708 37.1406 9.78906 37.3594 9.89844C37.5833 10.0078 37.8281 10.1146 38.0938 10.2188C38.6094 10.4219 39.0651 10.6458 39.4609 10.8906C39.8568 11.1302 40.1875 11.401 40.4531 11.7031C40.7188 12 40.9193 12.3359 41.0547 12.7109C41.1901 13.0859 41.2578 13.513 41.2578 13.9922C41.2578 14.4661 41.1745 14.8984 41.0078 15.2891C40.8464 15.6745 40.6094 16.0078 40.2969 16.2891C39.9844 16.5651 39.6068 16.7786 39.1641 16.9297C38.7266 17.0807 38.237 17.1562 37.6953 17.1562C37.1693 17.1562 36.6719 17.0833 36.2031 16.9375C35.7344 16.7865 35.3203 16.5599 34.9609 16.2578C34.6068 15.9505 34.3281 15.5625 34.125 15.0938C33.9219 14.6198 33.8203 14.0599 33.8203 13.4141H36.1094C36.1094 13.7578 36.1432 14.0521 36.2109 14.2969C36.2786 14.5365 36.3828 14.7292 36.5234 14.875C36.6641 15.0156 36.8359 15.1224 37.0391 15.1953C37.2474 15.263 37.4844 15.2969 37.75 15.2969C38.0521 15.2969 38.2917 15.2396 38.4688 15.125C38.651 15.0104 38.7812 14.8568 38.8594 14.6641C38.9375 14.4714 38.9766 14.2526 38.9766 14.0078ZM44.8828 10.1719V20.25H42.7031V8.54688H44.7188L44.8828 10.1719ZM49.2734 12.4844V13.0469C49.2734 13.7083 49.2161 14.2943 49.1016 14.8047C48.987 15.3099 48.8151 15.7396 48.5859 16.0938C48.362 16.4427 48.0807 16.7083 47.7422 16.8906C47.4036 17.0677 47.0078 17.1562 46.5547 17.1562C46.1328 17.1562 45.7682 17.0573 45.4609 16.8594C45.1589 16.6562 44.9036 16.3776 44.6953 16.0234C44.487 15.6693 44.3203 15.2552 44.1953 14.7812C44.0703 14.3073 43.974 13.7995 43.9062 13.2578V12.3828C43.9688 11.8047 44.0599 11.2734 44.1797 10.7891C44.2995 10.2995 44.4635 9.875 44.6719 9.51562C44.8854 9.15625 45.1432 8.88021 45.4453 8.6875C45.7526 8.48958 46.1172 8.39062 46.5391 8.39062C46.9974 8.39062 47.3958 8.47396 47.7344 8.64062C48.0781 8.80729 48.362 9.0599 48.5859 9.39844C48.8151 9.73177 48.987 10.1562 49.1016 10.6719C49.2161 11.1875 49.2734 11.7917 49.2734 12.4844ZM47.0859 13.0469V12.4844C47.0859 12.0781 47.0625 11.7318 47.0156 11.4453C46.974 11.1589 46.9062 10.9245 46.8125 10.7422C46.7188 10.5599 46.5964 10.4271 46.4453 10.3438C46.2943 10.2604 46.1094 10.2188 45.8906 10.2188C45.6771 10.2188 45.4896 10.2604 45.3281 10.3438C45.1719 10.4271 45.0443 10.5495 44.9453 10.7109C44.8464 10.8672 44.7708 11.0599 44.7188 11.2891C44.6667 11.513 44.638 11.7682 44.6328 12.0547V13.5859C44.6432 13.9245 44.6875 14.224 44.7656 14.4844C44.849 14.7448 44.9818 14.9531 45.1641 15.1094C45.3464 15.2604 45.5938 15.3359 45.9062 15.3359C46.1302 15.3359 46.3151 15.2891 46.4609 15.1953C46.612 15.1016 46.7344 14.9609 46.8281 14.7734C46.9219 14.5859 46.987 14.349 47.0234 14.0625C47.0651 13.776 47.0859 13.4375 47.0859 13.0469ZM50.3672 13.0625V12.4922C50.3672 11.8307 50.4453 11.2448 50.6016 10.7344C50.763 10.224 50.9922 9.79688 51.2891 9.45312C51.5859 9.10417 51.9427 8.84115 52.3594 8.66406C52.7812 8.48177 53.2526 8.39062 53.7734 8.39062C54.2995 8.39062 54.7708 8.48177 55.1875 8.66406C55.6094 8.84115 55.9688 9.10417 56.2656 9.45312C56.5677 9.79688 56.7995 10.224 56.9609 10.7344C57.1224 11.2448 57.2031 11.8307 57.2031 12.4922V13.0625C57.2031 13.7188 57.1224 14.3021 56.9609 14.8125C56.7995 15.3229 56.5677 15.7526 56.2656 16.1016C55.9688 16.4505 55.612 16.7135 55.1953 16.8906C54.7786 17.0677 54.3099 17.1562 53.7891 17.1562C53.2682 17.1562 52.7969 17.0677 52.375 16.8906C51.9583 16.7135 51.599 16.4505 51.2969 16.1016C50.9948 15.7526 50.763 15.3229 50.6016 14.8125C50.4453 14.3021 50.3672 13.7188 50.3672 13.0625ZM52.5547 12.4922V13.0625C52.5547 13.4531 52.5807 13.7917 52.6328 14.0781C52.6901 14.3646 52.7708 14.6016 52.875 14.7891C52.9844 14.9766 53.1146 15.1146 53.2656 15.2031C53.4167 15.2917 53.5911 15.3359 53.7891 15.3359C53.987 15.3359 54.1641 15.2917 54.3203 15.2031C54.4766 15.1146 54.6042 14.9766 54.7031 14.7891C54.8073 14.6016 54.8828 14.3646 54.9297 14.0781C54.9818 13.7917 55.0078 13.4531 55.0078 13.0625V12.4922C55.0078 12.112 54.9792 11.7786 54.9219 11.4922C54.8646 11.2005 54.7839 10.9635 54.6797 10.7812C54.5755 10.5938 54.4453 10.4531 54.2891 10.3594C54.138 10.2604 53.9661 10.2109 53.7734 10.2109C53.5807 10.2109 53.4089 10.2604 53.2578 10.3594C53.112 10.4531 52.9844 10.5938 52.875 10.7812C52.7708 10.9635 52.6901 11.2005 52.6328 11.4922C52.5807 11.7786 52.5547 12.112 52.5547 12.4922ZM62.2734 8.54688V10.1953H57.9609V8.54688H62.2734ZM58.9531 6.46094H61.1328V14.4219C61.1328 14.6562 61.1562 14.8359 61.2031 14.9609C61.25 15.0859 61.3203 15.1745 61.4141 15.2266C61.513 15.2734 61.6432 15.2969 61.8047 15.2969C61.9141 15.2969 62.0156 15.2917 62.1094 15.2812C62.2031 15.2656 62.2734 15.25 62.3203 15.2344V16.9453C62.1484 17.013 61.9661 17.0651 61.7734 17.1016C61.5859 17.138 61.362 17.1562 61.1016 17.1562C60.6641 17.1562 60.2839 17.0729 59.9609 16.9062C59.6432 16.7396 59.3958 16.474 59.2188 16.1094C59.0417 15.7396 58.9531 15.2552 58.9531 14.6562V6.46094Z" fill="white"/>
</svg>
